#!OML:ASF X:\für Bonn\!DataBase\2005_08_12_Daniel\c3d\Daniel.ASF
:FULLY-SPECIFIED
:DEGREES
77
root 1.56047 16.8001 -0.0734423 -166.653 -89.0331 163.568
lowerback 26.628 -3.23812 3.0347
upperback 4.76888 -3.95118 -1.81277
thorax -9.76133 -2.14702 -2.38697
lowerneck -6.00635 3.63364 1.6193
upperneck -11.8691 3.85062 -6.94345
head -2.58994 1.84528 -2.54154
rclavicle 2.04748e-014 1.03368e-014
rhumerus -234.73 -187.997 80.3167
rradius 77.0957
rwrist 21.1051
rhand -13.1044 2.84099
rfingers 7.12502
rthumb 12.9925 -26.7344
lclavicle 2.04748e-014 1.03368e-014
lhumerus -227.02 194.877 -75.7908
lradius 74.006
lwrist 33.5149
lhand -24.1303 368.27
lfingers 7.12502
lthumb 2.35148 38.2365
rfemur -14.8036 1.84032 15.5666
rtibia 40.9203
rfoot -27.6632 -12.224
rtoes -10.8443
lfemur -21.678 -9.2934 -13.8668
ltibia 46.8173
lfoot -25.1412 2.93953
ltoes 0.161041
78
root 1.54836 16.7817 -0.0555385 -152.661 -89.1978 149.538
lowerback 26.5436 -3.26566 3.09636
upperback 4.73357 -3.97376 -1.86922
thorax -9.76805 -2.15927 -2.48033
lowerneck -5.52148 3.48999 1.32731
upperneck -12.2983 3.6445 -6.84034
head -2.83838 1.76374 -2.47984
rclavicle -1.33186e-014 4.77083e-015
rhumerus -234.181 -187.868 80.2496
rradius 76.7745
rwrist 21.5488
rhand -12.7909 2.32995
rfingers 7.12502
rthumb 13.2948 -27.226
lclavicle -1.33186e-014 4.77083e-015
lhumerus -225.776 195.937 -75.6287
lradius 72.6266
lwrist 34.3808
lhand -24.5121 368.92
lfingers 7.12502
lthumb 1.98278 38.8902
rfemur -14.9547 1.50333 15.2898
rtibia 41.3955
rfoot -27.7605 -12.0797
rtoes -10.8617
lfemur -21.8081 -9.23591 -14.101
ltibia 47.0975
lfoot -25.2536 2.67518
ltoes 0.166562
79
root 1.5336 16.7617 -0.0384216 -132.07 -89.3045 128.888
lowerback 26.4074 -3.27167 3.10073
upperback 4.71728 -3.98396 -1.90284
thorax -9.72047 -2.16331 -2.52205
lowerneck -5.05103 3.36057 1.15356
upperneck -12.6827 3.45023 -6.80208
head -3.06745 1.68468 -2.45874
rclavicle 3.58806e-014 -5.96354e-015
rhumerus -233.48 -187.901 80.1178
rradius 76.374
rwrist 21.9083
rhand -12.7187 1.94469
rfingers 7.12502
rthumb 13.3643 -27.6067
lclavicle 3.58806e-014 -5.96354e-015
lhumerus -224.368 197.031 -75.5053
lradius 71.2933
lwrist 35.2288
lhand -24.9529 369.457
lfingers 7.12502
lthumb 1.55708 39.4313
rfemur -15.0477 1.29053 15.0279
rtibia 41.8639
rfoot -27.9761 -12.0032
rtoes -10.8751
lfemur -21.9089 -9.19173 -14.3429
ltibia 47.387
lfoot -25.3558 2.39803
ltoes 0.263394
80
root 1.51774 16.7419 -0.0205929 -106.414 -89.3113 103.127
lowerback 26.2972 -3.26862 3.06876
upperback 4.68744 -3.98959 -1.92313
thorax -9.69786 -2.16387 -2.52827
lowerneck -4.55684 3.23515 1.11892
upperneck -13.0001 3.25541 -6.85561
head -3.27655 1.60277 -2.49161
rclavicle 4.36332e-014 -5.56597e-015
rhumerus -232.695 -188.072 79.9184
rradius 75.8796
rwrist 22.1209
rhand -12.9674 1.78144
rfingers 7.12502
rthumb 13.1246 -27.7855
lclavicle 4.36332e-014 -5.56597e-015
lhumerus -222.925 198.097 -75.4161
lradius 70.0605
lwrist 36.0245
lhand -25.4427 369.869
lfingers 7.12502
lthumb 1.08404 39.8463
rfemur -15.0698 1.12922 14.778
rtibia 42.3213
rfoot -28.2124 -11.9699
rtoes -10.8058
lfemur -21.9729 -9.14553 -14.5879
ltibia 47.6898
lfoot -25.453 2.09965
ltoes 0.278187
81
root 1.50028 16.7215 -0.00362826 -82.7788 -89.1735 79.3499
lowerback 26.1699 -3.24347 2.98804
upperback 4.67617 -3.98015 -1.93266
thorax -9.64042 -2.15566 -2.50081
lowerneck -4.13196 3.09588 1.12649
upperneck -13.2542 3.04398 -6.91877
head -3.453 1.50952 -2.53107
rclavicle 0 1.59028e-014
rhumerus -231.747 -188.333 79.6859
rradius 75.3524
rwrist 22.1141
rhand -13.3008 1.69692
rfingers 7.12502
rthumb 12.8033 -27.8905
lclavicle 0 1.59028e-014
lhumerus -221.421 199.138 -75.3671
lradius 68.9146
lwrist 36.6819
lhand -25.9784 370.01
lfingers 7.12502
lthumb 0.566562 39.9887
rfemur -15.0279 0.99227 14.5157
rtibia 42.7755
rfoot -28.4907 -11.929
rtoes -10.691
lfemur -21.9954 -9.16673 -14.8546
ltibia 47.9924
lfoot -25.5552 1.82865
ltoes 0.288081
82
root 1.48041 16.7008 0.0136502 -67.5846 -88.9388 63.9863
lowerback 26.0143 -3.21783 2.89802
upperback 4.66857 -3.97367 -1.94769
thorax -9.56425 -2.14857 -2.4743
lowerneck -3.70411 2.96896 1.2109
upperneck -13.4715 2.84698 -7.03297
head -3.61669 1.42191 -2.60054
rclavicle 3.27995e-014 -3.18055e-015
rhumerus -230.774 -188.693 79.3816
rradius 74.9015
rwrist 22.0252
rhand -13.7717 1.72091
rfingers 7.12502
rthumb 12.3492 -27.8944
lclavicle 3.27995e-014 -3.18055e-015
lhumerus -219.903 200.157 -75.3706
lradius 67.9619
lwrist 37.2203
lhand -26.609 369.961
lfingers 7.12502
lthumb -0.0423993 39.9402
rfemur -14.9597 0.750142 14.2383
rtibia 43.2289
rfoot -28.6966 -11.8561
rtoes -10.7097
lfemur -21.9843 -9.16207 -15.1337
ltibia 48.2989
lfoot -25.6478 1.59911
ltoes 0.273951
